<?xml version="1.0" standalone="no"?>
<!DOCTYPE svg PUBLIC "-//W3C//DTD SVG 20010904//EN"
 "http://www.w3.org/TR/2001/REC-SVG-20010904/DTD/svg10.dtd">
<svg version="1.0" xmlns="http://www.w3.org/2000/svg"
 width="500.000000pt" height="500.000000pt" viewBox="0 0 500.000000 500.000000"
 preserveAspectRatio="xMidYMid meet">

<g transform="translate(0.000000,500.000000) scale(0.100000,-0.100000)"
fill="#000000" stroke="none">
<path d="M3323 3240 c-49 -20 -58 -95 -17 -137 49 -49 134 -10 134 62 0 60
-61 99 -117 75z"/>
<path d="M3310 3028 c-41 -44 -11 -111 50 -111 61 0 91 67 50 111 -27 29 -73
29 -100 0z"/>
<path d="M2685 2965 c-44 -43 -29 -112 28 -134 31 -12 53 -6 85 22 49 45 11
137 -58 137 -19 0 -40 -9 -55 -25z"/>
<path d="M3925 2965 c-44 -43 -29 -112 28 -134 31 -12 53 -6 85 22 49 45 11
137 -58 137 -19 0 -40 -9 -55 -25z"/>
<path d="M3328 2868 c-31 -24 -27 -74 7 -90 41 -18 75 3 75 46 0 49 -45 72
-82 44z"/>
<path d="M2826 2829 c-33 -26 -34 -68 -3 -97 13 -12 33 -22 46 -22 28 0 71 42
71 70 0 26 -43 70 -68 70 -11 0 -31 -9 -46 -21z"/>
<path d="M3805 2825 c-14 -13 -25 -33 -25 -45 0 -28 43 -70 73 -70 31 0 67 39
67 72 0 30 -41 68 -72 68 -10 0 -30 -11 -43 -25z"/>
<path d="M3330 2725 c-26 -32 13 -81 48 -59 34 22 22 74 -18 74 -10 0 -23 -7
-30 -15z"/>
<path d="M2942 2708 c-21 -21 -14 -66 13 -84 46 -30 97 16 71 67 -13 27 -63
38 -84 17z"/>
<path d="M3702 2708 c-24 -30 -18 -76 13 -90 50 -23 102 51 63 90 -16 16 -63
15 -76 0z"/>
<path d="M3041 2606 c-21 -26 -9 -51 23 -49 39 3 54 18 40 41 -14 22 -48 27
-63 8z"/>
<path d="M3338 2608 c-7 -18 2 -38 16 -38 18 0 35 21 29 36 -6 17 -39 18 -45
2z"/>
<path d="M3620 2605 c-26 -32 13 -81 48 -59 34 22 22 74 -18 74 -10 0 -23 -7
-30 -15z"/>
<path d="M3554 2515 c-4 -9 -2 -21 4 -27 15 -15 44 -1 40 19 -4 23 -36 29 -44
8z"/>
<path d="M4183 2348 c-31 -34 -36 -63 -18 -97 15 -31 51 -47 90 -42 30 3 65
48 65 82 0 68 -92 106 -137 57z"/>
<path d="M4025 2348 c-28 -16 -35 -28 -35 -65 0 -22 7 -37 22 -47 48 -34 108
-7 108 47 0 38 -7 50 -37 66 -26 14 -33 13 -58 -1z"/>
<path d="M3855 2320 c-23 -25 -13 -67 20 -82 52 -23 100 46 59 86 -21 22 -57
20 -79 -4z"/>
<path d="M3748 2319 c-22 -12 -23 -42 -3 -59 32 -26 81 13 59 48 -14 21 -33
25 -56 11z"/>
<path d="M3644 2299 c-8 -14 21 -43 35 -35 19 12 13 46 -8 46 -11 0 -23 -5
-27 -11z"/>
<path d="M3560 2084 c-10 -11 -10 -17 0 -28 15 -19 40 -10 40 14 0 24 -25 33
-40 14z"/>
<path d="M3626 2027 c-36 -26 4 -84 42 -61 24 16 27 45 6 61 -10 7 -21 13 -24
13 -3 0 -14 -6 -24 -13z"/>
<path d="M3702 1948 c-10 -13 -15 -34 -13 -55 0 -7 12 -20 26 -29 23 -15 27
-15 50 0 27 18 34 63 13 84 -16 16 -63 15 -76 0z"/>
<path d="M3819 1855 c-58 -31 -38 -116 29 -123 59 -6 93 61 55 106 -25 28 -53
34 -84 17z"/>
<path d="M3925 1725 c-28 -27 -33 -79 -11 -108 21 -27 70 -41 98 -26 34 18 47
40 48 77 0 43 -38 82 -80 82 -19 0 -40 -9 -55 -25z"/>
</g>
</svg>
